<svg width="656" height="474" viewBox="0 0 656 474" fill="none" xmlns="http://www.w3.org/2000/svg">
<g clip-path="url(#clip0_77_822)">
<path d="M514.834 42.5967C513.179 30.4601 511.104 17.4298 502.544 8.66861C499.828 5.88871 496.577 3.68764 492.987 2.19808C489.398 0.708513 485.543 -0.0386825 481.657 0.00154186C477.771 0.0417662 473.933 0.868585 470.375 2.43213C466.816 3.99567 463.612 6.26357 460.954 9.09909C454.723 15.7464 451.971 25.0804 451.719 34.1881C451.467 43.2958 453.496 52.3024 455.746 61.1314C467.654 61.3693 479.474 59.0427 490.404 54.3096C493.083 53.0021 495.861 51.9112 498.714 51.0472C501.601 50.3123 503.66 52.1617 506.346 53.4512L507.82 50.628C509.027 52.8742 512.765 52.2084 514.12 50.0487C515.476 47.889 515.179 45.1232 514.834 42.5967Z" fill="#2F2E41"/>
<path d="M465.097 93.8408L468.545 76.2273L442.692 65.0348L396.472 42.8918C396.15 40.8371 395.212 38.9287 393.782 37.4189C392.351 35.9091 390.496 34.8691 388.462 34.4365C386.428 34.004 384.31 34.1992 382.389 34.9963C380.468 35.7934 378.834 37.155 377.704 38.9008C376.574 40.6466 376 42.6944 376.059 44.7734C376.118 46.8523 376.807 48.8644 378.034 50.5435C379.261 52.2225 380.969 53.4894 382.932 54.1766C384.895 54.8638 387.02 54.9388 389.027 54.3918L433.035 81.5503L465.097 93.8408Z" fill="#FFB8B8"/>
<path d="M447.742 90.8605L466.467 71.7188L466.837 71.8314C467.07 71.9019 490.335 78.9944 505.166 86.2018C506.843 86.9543 508.335 88.0634 509.539 89.4517C510.742 90.8401 511.628 92.4743 512.136 94.2404C512.874 96.7133 512.874 99.3479 512.136 101.821C511.397 104.294 509.953 106.497 507.98 108.161C505.952 109.976 503.444 111.169 500.756 111.597C498.067 112.025 495.313 111.67 492.821 110.574L447.742 90.8605Z" fill="#6C63FF"/>
<path d="M447.684 175.017L500.338 189.087L510.971 139.346L462.642 124.387L447.684 175.017Z" fill="#FFB8B8"/>
<path d="M506.232 161.516L454.795 149.687L444.946 125.815C444.144 122.407 444.339 118.841 445.506 115.541C446.674 112.241 448.766 109.346 451.532 107.201L470.325 91.3344L480.399 78.4649L479.303 71.6447C479.106 70.2816 479.392 68.8928 480.111 67.7183C480.83 66.5438 481.937 65.6574 483.24 65.2122L496.667 60.3972C498.152 59.8422 499.791 59.8719 501.255 60.4804C502.718 61.0889 503.895 62.2307 504.548 63.6746L505.971 66.9674C505.971 66.9674 512.043 69.8246 515.466 71.4317C517.227 72.2326 518.8 73.3965 520.08 74.8472C521.361 76.2979 522.321 78.0027 522.897 79.8499C528.135 96.7821 526.723 115.075 518.947 131.002L506.232 161.516Z" fill="#6C63FF"/>
<path d="M48.7909 414.93L23.9211 408.275C20.2643 395.258 19.8403 381.545 22.686 368.327C33.536 389.775 62.6758 393.819 79.9383 410.544C85.2823 415.802 89.3747 422.195 91.9121 429.249C94.4496 436.304 95.367 443.839 94.5965 451.296L100.554 468.556C88.4614 468.077 76.616 464.983 65.8342 459.486C55.0524 453.989 45.5905 446.22 38.1004 436.714C33.9513 431.34 30.4954 425.464 27.8145 419.226C38.221 417.701 48.7909 414.93 48.7909 414.93Z" fill="#F2F2F2"/>
<path d="M357.77 473.405H114.013C107.48 473.398 101.217 470.8 96.5981 466.18C91.9788 461.561 89.3804 455.298 89.373 448.765V126.003C89.3804 119.47 91.9788 113.207 96.5981 108.588C101.217 103.969 107.48 101.37 114.013 101.363H357.77C364.303 101.37 370.566 103.969 375.185 108.588C379.805 113.207 382.403 119.47 382.41 126.003V448.765C382.403 455.298 379.805 461.561 375.185 466.18C370.566 470.8 364.303 473.398 357.77 473.405Z" fill="#E6E6E6"/>
<path d="M264.735 453.428H131.147C125.199 453.421 119.496 451.055 115.29 446.849C111.084 442.643 108.718 436.94 108.712 430.992V143.777C108.718 137.829 111.084 132.126 115.29 127.92C119.496 123.714 125.199 121.349 131.147 121.342H340.636C346.584 121.349 352.287 123.714 356.493 127.92C360.699 132.126 363.064 137.829 363.071 143.777V355.092C363.042 381.163 352.672 406.158 334.237 424.593C315.801 443.028 290.806 453.398 264.735 453.428Z" fill="white"/>
<path d="M319.738 176.481H152.045C151.327 176.482 150.616 176.342 149.952 176.068C149.288 175.794 148.684 175.392 148.176 174.884C147.668 174.377 147.264 173.775 146.988 173.112C146.713 172.448 146.57 171.737 146.569 171.019C146.568 170.301 146.709 169.59 146.983 168.926C147.257 168.262 147.659 167.659 148.166 167.15C148.674 166.642 149.276 166.238 149.939 165.962C150.602 165.687 151.313 165.544 152.031 165.543H319.738C321.189 165.542 322.58 166.116 323.607 167.14C324.634 168.165 325.212 169.555 325.214 171.006C325.216 172.456 324.641 173.848 323.617 174.875C322.593 175.902 321.202 176.48 319.752 176.481H319.738Z" fill="#6C63FF"/>
<path d="M319.738 198.092H152.045C150.594 198.092 149.203 197.516 148.178 196.49C147.152 195.465 146.576 194.074 146.576 192.623C146.576 191.173 147.152 189.781 148.178 188.756C149.203 187.73 150.594 187.154 152.045 187.154H319.738C321.188 187.154 322.58 187.73 323.605 188.756C324.631 189.781 325.207 191.173 325.207 192.623C325.207 194.074 324.631 195.465 323.605 196.49C322.58 197.516 321.188 198.092 319.738 198.092Z" fill="#6C63FF"/>
<path d="M224.736 219.703H152.045C150.594 219.703 149.203 219.127 148.178 218.101C147.152 217.076 146.576 215.684 146.576 214.234C146.576 212.783 147.152 211.392 148.178 210.367C149.203 209.341 150.594 208.765 152.045 208.765H224.736C226.186 208.765 227.578 209.341 228.603 210.367C229.629 211.392 230.205 212.783 230.205 214.234C230.205 215.684 229.629 217.076 228.603 218.101C227.578 219.127 226.186 219.703 224.736 219.703Z" fill="#6C63FF"/>
<path d="M319.738 264.964H152.045C150.595 264.966 149.203 264.392 148.176 263.367C147.149 262.343 146.571 260.953 146.569 259.502C146.568 258.052 147.142 256.66 148.166 255.633C149.191 254.606 150.581 254.028 152.031 254.026H319.738C321.189 254.025 322.58 254.599 323.607 255.623C324.634 256.648 325.212 258.038 325.214 259.489C325.216 260.939 324.641 262.331 323.617 263.358C322.593 264.385 321.202 264.963 319.752 264.964H319.738Z" fill="#E4E4E4"/>
<path d="M319.738 286.575H152.045C150.594 286.575 149.203 285.999 148.178 284.973C147.152 283.948 146.576 282.557 146.576 281.106C146.576 279.655 147.152 278.264 148.178 277.239C149.203 276.213 150.594 275.637 152.045 275.637H319.738C321.188 275.637 322.58 276.213 323.605 277.239C324.631 278.264 325.207 279.655 325.207 281.106C325.207 282.557 324.631 283.948 323.605 284.973C322.58 285.999 321.188 286.575 319.738 286.575Z" fill="#E4E4E4"/>
<path d="M224.736 308.186H152.045C150.594 308.186 149.203 307.609 148.178 306.584C147.152 305.558 146.576 304.167 146.576 302.716C146.576 301.266 147.152 299.875 148.178 298.849C149.203 297.823 150.594 297.247 152.045 297.247H224.736C226.186 297.247 227.578 297.823 228.603 298.849C229.629 299.875 230.205 301.266 230.205 302.716C230.205 304.167 229.629 305.558 228.603 306.584C227.578 307.609 226.186 308.186 224.736 308.186Z" fill="#E4E4E4"/>
<path d="M319.738 353.447H152.045C150.595 353.449 149.203 352.874 148.176 351.85C147.149 350.825 146.571 349.435 146.569 347.985C146.568 346.534 147.142 345.142 148.166 344.115C149.191 343.089 150.581 342.511 152.031 342.509H319.738C321.189 342.507 322.58 343.081 323.607 344.106C324.634 345.13 325.212 346.52 325.214 347.971C325.216 349.421 324.641 350.813 323.617 351.84C322.593 352.867 321.202 353.445 319.752 353.447H319.738Z" fill="#E4E4E4"/>
<path d="M319.738 375.058H152.045C150.594 375.058 149.203 374.481 148.178 373.456C147.152 372.43 146.576 371.039 146.576 369.588C146.576 368.138 147.152 366.747 148.178 365.721C149.203 364.695 150.594 364.119 152.045 364.119H319.738C321.188 364.119 322.58 364.695 323.605 365.721C324.631 366.747 325.207 368.138 325.207 369.588C325.207 371.039 324.631 372.43 323.605 373.456C322.58 374.481 321.188 375.058 319.738 375.058Z" fill="#E4E4E4"/>
<path d="M224.736 396.669H152.045C150.596 396.666 149.208 396.088 148.184 395.063C147.161 394.038 146.586 392.648 146.586 391.199C146.586 389.751 147.161 388.361 148.184 387.336C149.208 386.31 150.596 385.733 152.045 385.73H224.736C226.185 385.733 227.573 386.31 228.596 387.336C229.62 388.361 230.195 389.751 230.195 391.199C230.195 392.648 229.62 394.038 228.596 395.063C227.573 396.088 226.185 396.666 224.736 396.669Z" fill="#E4E4E4"/>
<path d="M370.373 178.74C409.641 178.74 441.473 146.907 441.473 107.64C441.473 68.3729 409.641 36.5405 370.373 36.5405C331.106 36.5405 299.274 68.3729 299.274 107.64C299.274 146.907 331.106 178.74 370.373 178.74Z" fill="#6C63FF"/>
<path opacity="0.16" d="M370.373 168.89C352.385 168.888 335.067 162.067 321.909 149.801C308.752 137.536 300.732 120.739 299.469 102.795C299.353 104.451 299.274 106.116 299.274 107.8C299.281 126.652 306.775 144.73 320.108 158.058C333.441 171.386 351.521 178.873 370.373 178.873C389.226 178.873 407.306 171.386 420.639 158.058C433.972 144.73 441.466 126.652 441.473 107.8C441.473 106.116 441.393 104.451 441.278 102.795C440.014 120.739 431.995 137.536 418.837 149.801C405.68 162.067 388.361 168.888 370.373 168.89Z" fill="#231F20"/>
<path d="M370.374 142.385C368.013 142.382 365.75 141.443 364.08 139.774C362.411 138.105 361.472 135.842 361.469 133.481V81.9599C361.468 80.7898 361.697 79.6309 362.144 78.5496C362.591 77.4682 363.247 76.4855 364.074 75.6577C364.901 74.8298 365.883 74.1731 366.964 73.7251C368.045 73.277 369.203 73.0464 370.373 73.0464C371.543 73.0464 372.702 73.277 373.783 73.7251C374.864 74.1731 375.846 74.8298 376.673 75.6577C377.5 76.4855 378.155 77.4682 378.602 78.5496C379.049 79.6309 379.279 80.7898 379.277 81.9599V133.481C379.275 135.842 378.336 138.105 376.667 139.774C374.997 141.443 372.734 142.382 370.374 142.385Z" fill="white"/>
<path d="M335.708 107.721C335.711 105.36 336.65 103.097 338.32 101.427C339.989 99.7581 342.252 98.8191 344.613 98.8164H396.134C397.304 98.8152 398.463 99.0445 399.544 99.4915C400.626 99.9384 401.608 100.594 402.436 101.421C403.264 102.248 403.921 103.23 404.369 104.311C404.817 105.392 405.047 106.55 405.047 107.72C405.047 108.891 404.817 110.049 404.369 111.13C403.921 112.211 403.264 113.193 402.436 114.02C401.608 114.847 400.626 115.503 399.544 115.949C398.463 116.396 397.304 116.626 396.134 116.625H344.613C342.252 116.622 339.989 115.683 338.32 114.014C336.65 112.345 335.711 110.081 335.708 107.721Z" fill="white"/>
<path d="M477.254 122.828L462.124 113.173L442.246 133.136L404.724 168.045C402.694 167.593 400.575 167.767 398.646 168.546C396.717 169.325 395.071 170.67 393.924 172.405C392.777 174.14 392.183 176.182 392.222 178.262C392.261 180.341 392.93 182.36 394.141 184.05C395.352 185.741 397.048 187.025 399.004 187.731C400.96 188.437 403.085 188.532 405.097 188.005C407.108 187.477 408.912 186.351 410.27 184.776C411.628 183.201 412.476 181.25 412.701 179.183L454.082 148.168L477.254 122.828Z" fill="#FFB8B8"/>
<path d="M468.129 137.888L457.168 113.457L457.409 113.154C457.56 112.963 472.675 93.9076 484.81 82.7432C486.124 81.4586 487.702 80.476 489.434 79.864C491.167 79.252 493.012 79.0252 494.841 79.1996C497.412 79.4186 499.864 80.3831 501.895 81.975C503.926 83.5669 505.448 85.7169 506.275 88.1613C507.222 90.713 507.414 93.4835 506.829 96.1416C506.244 98.7997 504.905 101.233 502.973 103.151L468.129 137.888Z" fill="#6C63FF"/>
<path d="M478.032 57.586C491.168 57.586 501.817 46.9368 501.817 33.8003C501.817 20.6639 491.168 10.0146 478.032 10.0146C464.895 10.0146 454.246 20.6639 454.246 33.8003C454.246 46.9368 464.895 57.586 478.032 57.586Z" fill="#FFB8B8"/>
<path d="M441.077 456.369H431.244L426.564 418.442H441.077V456.369Z" fill="#FFB8B8"/>
<path d="M446.267 473.406H439.215L437.956 466.748L434.733 473.406H416.03C415.134 473.406 414.261 473.119 413.539 472.588C412.816 472.057 412.283 471.308 412.016 470.453C411.749 469.597 411.763 468.678 412.055 467.83C412.348 466.983 412.903 466.251 413.641 465.742L428.576 455.427V448.696L444.286 449.634L446.267 473.406Z" fill="#2F2E41"/>
<path d="M564.317 448.015L555.181 451.652L536.806 418.145L550.29 412.777L564.317 448.015Z" fill="#FFB8B8"/>
<path d="M575.44 461.925L568.888 464.533L565.257 458.813L564.724 466.191L547.347 473.108C546.514 473.439 545.597 473.496 544.73 473.269C543.862 473.043 543.09 472.545 542.526 471.849C541.961 471.152 541.634 470.293 541.592 469.398C541.551 468.502 541.796 467.617 542.293 466.871L552.355 451.763L549.865 445.51L564.808 440.571L575.44 461.925Z" fill="#2F2E41"/>
<path d="M444.87 438.946H424.53L430.151 343.387L426.042 278.615L426.051 278.563L441.377 185.716C442.583 178.395 445.841 171.565 450.773 166.022L450.959 165.812L502.251 178.479L507.408 190.238C525.017 200.712 530.578 259.771 530.807 262.287L538.262 335.911L556.498 426.144L543.656 433.059L543.441 432.631L502.898 352.012L477.294 266.993L460.897 343.512L444.87 438.946Z" fill="#2F2E41"/>
<path d="M507.489 34.9196C506.647 29.3908 505.768 23.8157 503.791 18.6098C501.813 13.4039 498.626 8.5278 494.054 5.57873C486.815 0.909613 477.442 1.81012 469.326 4.49592C463.05 6.57301 456.923 9.73001 452.496 14.8054C448.07 19.8808 445.584 27.1229 447.23 33.7592C455.888 31.7137 464.545 29.6682 473.203 27.6227L472.255 28.2924C475.098 29.7099 477.58 31.7563 479.514 34.2764C481.448 36.7965 482.782 39.7241 483.415 42.8368C484.034 45.9873 483.945 49.2361 483.155 52.3481C482.364 55.4601 480.892 58.3574 478.844 60.8306C484.749 58.736 490.653 56.6415 496.558 54.547C500.202 53.2542 504.103 51.7645 506.264 48.4484C508.77 44.6037 508.187 39.5078 507.489 34.9196Z" fill="#2F2E41"/>
<path d="M1.24698 473.177H653.8C654.131 473.177 654.448 473.045 654.682 472.811C654.916 472.578 655.047 472.26 655.047 471.93C655.047 471.599 654.916 471.282 654.682 471.048C654.448 470.814 654.131 470.683 653.8 470.683H1.24698C0.916254 470.683 0.599092 470.814 0.365234 471.048C0.131377 471.282 0 471.599 0 471.93C0 472.26 0.131377 472.578 0.365234 472.811C0.599092 473.045 0.916254 473.177 1.24698 473.177Z" fill="#CCCCCC"/>
</g>
<defs>
<clipPath id="clip0_77_822">
<rect width="655.047" height="473.406" fill="white"/>
</clipPath>
</defs>
</svg>
