<svg width="810" height="630" viewBox="0 0 810 630" fill="none" xmlns="http://www.w3.org/2000/svg">
<g clip-path="url(#clip0_77_722)">
<path d="M168.019 414.31C131.427 378.288 115.973 340.708 124.501 308.494C135.445 267.154 184.066 238.571 257.895 230.073L258.168 232.445C185.366 240.823 137.487 268.765 126.808 309.105C118.508 340.455 133.739 377.214 169.694 412.61L168.019 414.31Z" fill="#F0F0F0"/>
<path d="M521.067 542.177C475.399 542.177 425.771 535.39 376.477 522.34C315.519 506.202 259.627 481.844 214.843 451.897L216.169 449.914C260.737 479.715 316.382 503.962 377.088 520.033C431.947 534.557 487.218 541.287 536.905 539.511L536.991 541.895C531.744 542.084 526.436 542.178 521.067 542.177Z" fill="#F0F0F0"/>
<path d="M625.837 527.169L625.073 524.908C665.917 511.098 691.464 488.853 698.951 460.573C708.467 424.624 687.792 382.907 640.732 343.106C593.432 303.104 525.224 269.912 448.67 249.646L449.281 247.338C526.169 267.694 594.709 301.057 642.272 341.284C690.076 381.713 711.024 424.294 701.258 461.184C693.556 490.274 667.476 513.091 625.837 527.169Z" fill="#F0F0F0"/>
<path d="M250.79 543.174C161.054 503.375 91.905 451.74 56.083 397.781L58.071 396.461C93.6453 450.047 162.431 501.375 251.757 540.992L250.79 543.174Z" fill="#F0F0F0"/>
<path d="M566.296 612.123C557.04 612.123 547.626 611.916 538.054 611.503L538.156 609.119C609.589 612.211 672.616 603.663 720.435 584.393L721.328 586.607C679.614 603.415 626.446 612.123 566.296 612.123Z" fill="#F0F0F0"/>
<path d="M514.229 232.213C499.398 227.384 484.142 222.888 468.886 218.849C381.094 195.607 294.793 187.355 219.311 194.99L219.071 192.615C294.835 184.955 381.431 193.227 469.497 216.541C484.796 220.592 500.095 225.101 514.968 229.944L514.229 232.213Z" fill="#F0F0F0"/>
<path d="M111.936 417.89C75.3443 381.868 59.8897 344.288 68.4179 312.074C79.3622 270.733 127.983 242.15 201.812 233.653L202.085 236.024C129.283 244.403 81.4044 272.344 70.7252 312.684C62.4254 344.035 77.6557 380.794 113.611 416.19L111.936 417.89Z" fill="#F0F0F0"/>
<path d="M464.984 545.756C419.316 545.756 369.689 538.97 320.395 525.92C259.436 509.782 203.544 485.423 158.76 455.476L160.086 453.493C204.654 483.295 260.299 507.542 321.005 523.612C375.865 538.137 431.135 544.866 480.822 543.09L480.908 545.474C475.661 545.663 470.353 545.757 464.984 545.756Z" fill="#F0F0F0"/>
<path d="M569.754 530.749L568.99 528.488C609.834 514.678 635.381 492.432 642.868 464.153C652.385 428.203 631.709 386.486 584.649 346.686C537.349 306.683 469.141 273.491 392.588 253.225L393.198 250.918C470.086 271.273 538.626 304.637 586.189 344.864C633.993 385.292 654.941 427.874 645.175 464.764C637.474 493.854 611.393 516.671 569.754 530.749Z" fill="#F0F0F0"/>
<path d="M194.707 546.754C104.971 506.955 35.822 455.32 0 401.361L1.98799 400.041C37.5624 453.627 106.348 504.955 195.674 544.573L194.707 546.754Z" fill="#F0F0F0"/>
<path d="M510.213 615.703C500.957 615.703 491.543 615.496 481.971 615.083L482.073 612.699C553.507 615.792 616.533 607.243 664.352 587.973L665.245 590.187C623.531 606.995 570.364 615.703 510.213 615.703Z" fill="#F0F0F0"/>
<path d="M458.147 235.793C443.315 230.964 428.059 226.468 412.803 222.429C325.011 199.187 238.711 190.935 163.228 198.57L162.988 196.195C238.752 188.535 325.348 196.807 413.414 220.122C428.713 224.172 444.012 228.681 458.886 233.524L458.147 235.793Z" fill="#F0F0F0"/>
<path d="M40.6767 353.969C57.8265 334.741 85.1832 323.021 109.975 330.037C87.1035 346.222 70.6945 369.975 63.6509 397.094C60.9724 407.563 59.0833 419.485 50.3771 425.886C44.96 429.869 37.7822 430.82 31.1203 429.913C24.4581 429.006 18.1587 426.415 11.9444 423.848L10.2722 423.993C15.0799 398.68 23.5269 373.197 40.6767 353.969Z" fill="#F2F2F2"/>
<path d="M109.899 330.572C89.1716 335.591 70.5525 347.013 56.6864 363.216C53.6393 366.651 51.1529 370.545 49.3184 374.754C47.6639 378.912 47.1532 383.438 47.8392 387.86C48.396 391.996 49.4445 396.163 48.9861 400.363C48.7195 402.509 48.0023 404.574 46.8815 406.424C45.7606 408.274 44.2614 409.865 42.4822 411.095C38.1288 414.274 32.8926 415.699 27.7237 416.915C21.9846 418.265 16.0021 419.576 11.3238 423.39C10.757 423.852 10.0731 422.945 10.6391 422.484C18.7785 415.848 30.0904 416.7 39.0959 411.88C43.298 409.631 46.8478 406.102 47.7109 401.26C48.4656 397.025 47.388 392.728 46.7881 388.544C46.0556 384.24 46.3883 379.822 47.757 375.676C49.3712 371.386 51.7036 367.403 54.6542 363.896C61.171 355.896 68.9052 348.969 77.5736 343.371C87.4313 336.927 98.3187 332.217 109.765 329.444C110.473 329.273 110.603 330.402 109.899 330.572Z" fill="white"/>
<path d="M60.844 357.735C58.4414 355.04 57.0751 351.578 56.9892 347.968C56.9033 344.358 58.1033 340.835 60.375 338.028C60.8366 337.462 61.7384 338.153 61.2761 338.72C59.1559 341.33 58.0384 344.611 58.1252 347.973C58.2121 351.334 59.4977 354.554 61.7499 357.05C62.2387 357.593 61.33 358.275 60.844 357.735Z" fill="white"/>
<path d="M47.2805 385.8C54.6457 386.289 61.9246 383.984 67.6659 379.345C68.2343 378.885 68.9184 379.791 68.3507 380.251C62.3671 385.067 54.7874 387.45 47.1242 386.925C46.3938 386.874 46.5541 385.749 47.2805 385.8Z" fill="white"/>
<path d="M87.6866 338.411C88.3989 339.647 89.4072 340.688 90.621 341.438C91.8347 342.189 93.216 342.627 94.6406 342.712C95.3712 342.753 95.2101 343.877 94.4842 343.836C92.9107 343.735 91.3859 343.25 90.043 342.424C88.7002 341.597 87.5801 340.455 86.7807 339.096C86.6946 338.974 86.6582 338.824 86.6787 338.676C86.6992 338.528 86.7752 338.394 86.8912 338.3C87.0116 338.21 87.1627 338.171 87.3117 338.192C87.4606 338.213 87.5953 338.291 87.6866 338.411Z" fill="white"/>
<path d="M145.166 409.859C144.709 409.846 144.252 409.833 143.79 409.828C137.645 409.687 131.499 410.046 125.413 410.9C124.941 410.959 124.464 411.025 123.995 411.097C109.353 413.312 95.25 418.226 82.4021 425.589C77.2923 428.524 72.4132 431.843 67.807 435.518C61.446 440.594 54.9528 446.603 47.5057 449.205C46.7318 449.485 45.9413 449.717 45.1387 449.899L10.5787 426.021C10.5274 425.928 10.4703 425.842 10.4186 425.748L8.99512 424.857C9.21944 424.651 9.45653 424.442 9.68085 424.236C9.81048 424.116 9.94784 424.001 10.0774 423.881C10.1663 423.803 10.2556 423.725 10.3313 423.649C10.3607 423.623 10.3906 423.597 10.4147 423.578C10.4904 423.502 10.5687 423.44 10.639 423.372C11.961 422.2 13.2936 421.036 14.6367 419.879C14.6422 419.871 14.6422 419.871 14.6553 419.868C24.9117 411.077 35.9921 403.065 47.9363 396.989C48.2957 396.806 48.6602 396.615 49.0354 396.444C54.4346 393.735 60.046 391.472 65.8138 389.677C68.9752 388.705 72.1839 387.893 75.4274 387.245C83.8113 385.586 92.404 385.257 100.89 386.269C117.807 388.289 133.89 395.696 144.375 408.846C144.643 409.183 144.904 409.514 145.166 409.859Z" fill="#F2F2F2"/>
<path d="M144.786 410.244C125.214 401.772 103.471 399.681 82.6448 404.27C78.1437 405.178 73.814 406.79 69.8149 409.047C65.9904 411.371 62.8579 414.677 60.7431 418.621C58.6973 422.259 57.0259 426.217 54.1315 429.294C52.6265 430.847 50.8102 432.064 48.8016 432.866C46.7931 433.668 44.6377 434.036 42.4769 433.947C37.0869 433.864 32.0481 431.85 27.1891 429.708C21.7941 427.331 16.228 424.776 10.1963 425.004C9.46551 425.032 9.46525 423.896 10.195 423.869C20.689 423.471 29.208 430.962 39.3003 432.535C44.0095 433.27 48.9686 432.589 52.5732 429.242C55.7253 426.315 57.4523 422.235 59.4919 418.534C61.4986 414.656 64.4243 411.329 68.0134 408.842C71.8847 406.39 76.1451 404.613 80.6123 403.59C90.6326 401.126 100.978 400.252 111.27 401.001C123.02 401.791 134.549 404.585 145.357 409.263C146.026 409.552 145.45 410.532 144.786 410.244Z" fill="white"/>
<path d="M89.264 402.398C88.9685 398.799 89.9618 395.212 92.0666 392.278C94.1714 389.344 97.2506 387.254 100.754 386.381C101.464 386.206 101.768 387.301 101.057 387.475C97.7933 388.282 94.9252 390.23 92.9708 392.966C91.0164 395.702 90.1045 399.047 90.3995 402.396C90.4628 403.124 89.3269 403.121 89.264 402.398Z" fill="white"/>
<path d="M61.5375 416.639C67.1236 421.464 74.3231 424.006 81.7003 423.759C82.4312 423.734 82.4317 424.869 81.7016 424.894C74.0243 425.138 66.5375 422.477 60.7355 417.443C60.1828 416.963 60.9878 416.162 61.5375 416.639Z" fill="white"/>
<path d="M122.331 403.129C122.155 404.545 122.334 405.983 122.851 407.313C123.368 408.643 124.207 409.824 125.294 410.75C125.852 411.223 125.047 412.024 124.492 411.554C123.296 410.526 122.371 409.22 121.796 407.752C121.222 406.284 121.015 404.697 121.195 403.13C121.2 402.981 121.261 402.84 121.366 402.734C121.472 402.628 121.613 402.567 121.762 402.562C121.913 402.563 122.057 402.622 122.163 402.729C122.27 402.835 122.33 402.979 122.331 403.129Z" fill="white"/>
<path d="M712.665 511.593C702.975 487.719 681.149 467.487 655.442 465.762C671.543 488.692 679.013 516.579 676.533 544.488C675.537 555.248 673.309 567.111 679.357 576.066C683.121 581.637 689.561 584.946 696.141 586.331C702.72 587.716 709.524 587.393 716.239 587.063L717.766 587.762C721.745 562.306 722.354 535.466 712.665 511.593Z" fill="#F2F2F2"/>
<path d="M655.333 466.291C673.168 477.984 686.865 495 694.479 514.92C696.194 519.18 697.227 523.683 697.54 528.264C697.701 532.736 696.661 537.17 694.528 541.105C692.614 544.813 690.226 548.385 689.246 552.495C688.776 554.606 688.757 556.792 689.191 558.911C689.625 561.029 690.502 563.033 691.764 564.789C694.796 569.246 699.249 572.348 703.708 575.23C708.66 578.43 713.854 581.676 716.978 586.84C717.356 587.466 718.305 586.842 717.927 586.217C712.492 577.232 701.551 574.232 694.69 566.666C691.488 563.136 689.331 558.619 690.145 553.768C690.858 549.526 693.317 545.841 695.288 542.103C697.425 538.295 698.596 534.022 698.701 529.657C698.622 525.075 697.764 520.539 696.164 516.245C692.715 506.519 687.759 497.396 681.476 489.21C674.358 479.828 665.687 471.733 655.839 465.274C655.229 464.875 654.727 465.895 655.333 466.291Z" fill="white"/>
<path d="M692.405 508.362C695.574 506.631 698.024 503.829 699.318 500.458C700.612 497.087 700.666 493.366 699.47 489.959C699.225 489.271 698.144 489.618 698.389 490.308C699.509 493.478 699.458 496.944 698.247 500.081C697.035 503.218 694.742 505.818 691.782 507.412C691.139 507.76 691.766 508.707 692.405 508.362Z" fill="white"/>
<path d="M695.747 539.352C688.646 537.338 682.565 532.72 678.717 526.421C678.336 525.797 677.387 526.421 677.767 527.044C681.784 533.592 688.122 538.384 695.516 540.464C696.221 540.662 696.448 539.549 695.747 539.352Z" fill="white"/>
<path d="M673.619 481.14C672.532 482.065 671.233 482.706 669.837 483.005C668.442 483.304 666.994 483.252 665.624 482.853C664.922 482.646 664.695 483.76 665.393 483.965C666.909 484.399 668.508 484.454 670.05 484.127C671.593 483.8 673.032 483.101 674.242 482.089C674.364 482.003 674.448 481.874 674.479 481.728C674.509 481.582 674.483 481.43 674.405 481.303C674.322 481.178 674.193 481.09 674.045 481.06C673.898 481.029 673.745 481.058 673.619 481.14Z" fill="white"/>
<path d="M595.469 529.112C595.904 529.254 596.339 529.395 596.776 529.546C602.611 531.478 608.279 533.882 613.724 536.732C614.148 536.946 614.575 537.169 614.993 537.394C628.038 544.401 639.67 553.769 649.295 565.023C653.121 569.504 656.601 574.27 659.704 579.279C663.989 586.198 668.085 594.04 674.224 598.993C674.859 599.517 675.526 600.001 676.22 600.443L716.795 589.569C716.875 589.498 716.958 589.437 717.038 589.365L718.678 589.005C718.536 588.736 718.383 588.459 718.241 588.19C718.159 588.033 718.068 587.879 717.987 587.722C717.929 587.618 717.872 587.515 717.826 587.418C717.807 587.383 717.787 587.349 717.771 587.324C717.725 587.227 717.672 587.142 717.629 587.054C716.778 585.506 715.914 583.961 715.038 582.42C715.035 582.411 715.035 582.411 715.024 582.404C708.319 570.677 700.576 559.407 691.369 549.67C691.092 549.377 690.812 549.075 690.517 548.787C686.342 544.421 681.818 540.404 676.989 536.775C674.338 534.796 671.589 532.953 668.752 531.253C661.413 526.873 653.431 523.675 645.098 521.776C628.487 517.992 610.85 519.563 596.555 528.424C596.189 528.651 595.832 528.876 595.469 529.112Z" fill="#F2F2F2"/>
<path d="M595.698 529.603C616.978 528.201 638.159 533.54 656.232 544.862C660.166 547.23 663.702 550.204 666.71 553.673C669.531 557.147 671.37 561.313 672.036 565.739C672.74 569.853 672.984 574.142 674.676 578.013C675.571 579.982 676.873 581.739 678.495 583.169C680.117 584.6 682.023 585.671 684.089 586.313C689.193 588.047 694.616 587.843 699.912 587.459C705.792 587.033 711.893 586.497 717.497 588.74C718.176 589.012 718.558 587.942 717.88 587.671C708.13 583.769 697.589 587.961 687.555 586.051C682.873 585.16 678.431 582.852 676.161 578.488C674.176 574.673 673.921 570.249 673.244 566.078C672.657 561.751 671.02 557.634 668.475 554.086C665.654 550.475 662.238 547.37 658.375 544.905C649.766 539.216 640.316 534.916 630.371 532.162C619.038 528.957 607.241 527.713 595.489 528.486C594.762 528.534 594.976 529.65 595.698 529.603Z" fill="white"/>
<path d="M650.627 540.874C652.115 537.584 652.385 533.872 651.389 530.402C650.392 526.931 648.195 523.927 645.189 521.927C644.579 521.525 643.925 522.453 644.535 522.856C647.338 524.714 649.385 527.512 650.306 530.745C651.227 533.979 650.962 537.436 649.558 540.491C649.254 541.156 650.325 541.535 650.627 540.874Z" fill="white"/>
<path d="M671.954 563.606C665.071 566.273 657.436 566.247 650.571 563.535C649.891 563.266 649.509 564.335 650.188 564.604C657.337 567.413 665.283 567.424 672.439 564.633C673.121 564.366 672.632 563.341 671.954 563.606Z" fill="white"/>
<path d="M619.238 530.449C618.928 531.842 618.276 533.136 617.342 534.215C616.408 535.294 615.22 536.124 613.886 536.631C613.201 536.888 613.691 537.913 614.371 537.657C615.843 537.091 617.153 536.173 618.188 534.983C619.223 533.793 619.95 532.368 620.307 530.832C620.353 530.69 620.343 530.536 620.279 530.401C620.215 530.266 620.103 530.161 619.964 530.106C619.822 530.056 619.666 530.064 619.531 530.128C619.395 530.193 619.29 530.308 619.238 530.449Z" fill="white"/>
<path d="M524.682 592.886C529.955 592.886 534.229 588.612 534.229 583.34C534.229 578.068 529.955 573.794 524.682 573.794C519.41 573.794 515.136 578.068 515.136 583.34C515.136 588.612 519.41 592.886 524.682 592.886Z" fill="#FD6584"/>
<path d="M558.496 430.296C563.768 430.296 568.042 426.022 568.042 420.75C568.042 415.478 563.768 411.204 558.496 411.204C553.224 411.204 548.95 415.478 548.95 420.75C548.95 426.022 553.224 430.296 558.496 430.296Z" fill="#E6E6E6"/>
<path d="M380.868 165.508C386.14 165.508 390.414 161.234 390.414 155.962C390.414 150.689 386.14 146.416 380.868 146.416C375.595 146.416 371.322 150.689 371.322 155.962C371.322 161.234 375.595 165.508 380.868 165.508Z" fill="#E6E6E6"/>
<path d="M180.826 522.146C180.826 524.576 180.906 527.006 181.076 529.416C181.256 532.296 181.566 535.156 181.986 537.996C183.397 547.558 186.095 556.886 190.006 565.726C190.205 566.166 190.405 566.606 190.606 567.046L190.906 567.706C191.006 567.926 191.116 568.146 191.216 568.356C191.356 568.646 191.486 568.926 191.626 569.206C191.796 569.556 191.966 569.906 192.146 570.256C192.166 570.296 192.186 570.346 192.216 570.396C192.366 570.696 192.506 570.986 192.666 571.286C192.695 571.351 192.728 571.415 192.766 571.476C192.936 571.816 193.116 572.166 193.296 572.506C193.496 572.866 193.686 573.236 193.886 573.596C194.366 574.486 194.866 575.366 195.376 576.246C195.526 576.506 195.676 576.766 195.836 577.026C195.976 577.266 196.116 577.506 196.266 577.746C196.366 577.906 196.466 578.076 196.566 578.236C196.726 578.506 196.886 578.766 197.056 579.036C197.426 579.626 197.806 580.216 198.176 580.806H198.186C198.356 581.076 198.536 581.346 198.716 581.606V581.616C199.246 582.416 199.796 583.216 200.346 584.006L200.349 584.007L200.353 584.009L200.355 584.012L200.356 584.016C200.796 584.656 201.256 585.276 201.706 585.896V585.906C202.006 586.296 202.296 586.696 202.596 587.086C202.836 587.406 203.086 587.736 203.336 588.056C203.386 588.126 203.446 588.186 203.496 588.256V588.266C203.566 588.356 203.636 588.436 203.706 588.526C204.766 589.886 205.859 591.216 206.986 592.516L207.166 592.726C207.226 592.796 207.296 592.866 207.356 592.946C207.456 593.056 207.546 593.166 207.646 593.276C207.736 593.386 207.836 593.496 207.936 593.606C213.809 600.222 220.468 606.095 227.766 611.096C228.736 611.766 229.726 612.416 230.716 613.046C230.966 613.206 231.216 613.366 231.466 613.516C231.536 613.566 231.616 613.616 231.686 613.666C231.826 613.746 231.956 613.826 232.096 613.916C232.226 613.996 232.356 614.076 232.496 614.156C233.026 614.486 233.566 614.806 234.106 615.126C234.236 615.206 234.376 615.286 234.516 615.366C234.646 615.436 234.786 615.516 234.926 615.596C234.926 615.606 234.926 615.606 234.936 615.606H234.946V615.616H234.956C235.626 616.006 236.306 616.386 236.996 616.756C237.366 616.956 237.746 617.166 238.126 617.356C238.986 617.826 239.856 618.276 240.726 618.706C241.036 618.856 241.356 619.006 241.666 619.166C241.926 619.286 242.186 619.416 242.446 619.536C242.526 619.576 242.596 619.606 242.666 619.646C242.886 619.746 243.096 619.846 243.316 619.946C243.556 620.056 243.796 620.166 244.026 620.276C244.296 620.396 244.556 620.516 244.826 620.626C245.826 621.076 246.836 621.506 247.846 621.916C251.465 623.4 255.164 624.682 258.926 625.756C259.096 625.806 259.276 625.856 259.456 625.906C261.066 626.356 262.686 626.766 264.316 627.136C267.166 627.796 270.042 628.336 272.946 628.756H272.966C273.316 628.806 273.656 628.856 274.006 628.906C274.036 628.906 274.066 628.916 274.106 628.916C274.106 628.926 274.106 628.926 274.116 628.916C274.496 628.966 274.886 629.016 275.266 629.066C275.292 629.074 275.319 629.077 275.346 629.076C275.706 629.126 276.076 629.166 276.436 629.206C276.826 629.246 277.216 629.286 277.606 629.326C277.906 629.356 278.206 629.386 278.506 629.416C278.531 629.425 278.559 629.428 278.586 629.426C278.856 629.446 279.126 629.476 279.396 629.496H279.436C279.666 629.516 279.906 629.536 280.136 629.556C282.926 629.776 285.726 629.876 288.566 629.876C291.636 629.876 294.686 629.756 297.696 629.496H297.726C298.376 629.436 299.016 629.376 299.656 629.316C299.826 629.296 299.986 629.286 300.156 629.266C300.186 629.266 300.226 629.256 300.256 629.256C300.306 629.246 300.356 629.246 300.416 629.236C300.443 629.237 300.47 629.234 300.496 629.226C300.716 629.206 300.936 629.176 301.166 629.156L301.916 629.066C302.166 629.036 302.416 628.996 302.666 628.966C302.726 628.956 302.776 628.956 302.836 628.946C303.016 628.926 303.196 628.896 303.376 628.866C303.466 628.856 303.556 628.846 303.636 628.836C303.816 628.806 303.986 628.786 304.166 628.756H304.176C309.663 627.966 315.08 626.746 320.376 625.106C320.656 625.016 320.936 624.936 321.216 624.846C321.226 624.846 321.236 624.836 321.246 624.836C321.326 624.806 321.416 624.786 321.496 624.756C322.246 624.516 322.986 624.266 323.726 624.006C324.746 623.666 325.756 623.296 326.766 622.916C327.036 622.806 327.306 622.706 327.576 622.596C328.126 622.386 328.666 622.166 329.206 621.946C330.126 621.576 331.046 621.186 331.956 620.786C332.806 620.406 333.646 620.026 334.486 619.626C334.506 619.616 334.536 619.616 334.556 619.596C334.746 619.506 334.936 619.416 335.116 619.326H335.126C339.731 617.116 344.172 614.579 348.416 611.736C349.776 610.826 351.116 609.886 352.436 608.916C353.496 608.126 354.536 607.326 355.576 606.506C360.706 602.425 365.456 597.886 369.766 592.946V592.936C370.076 592.596 370.366 592.246 370.666 591.896C370.716 591.846 370.756 591.796 370.796 591.756C370.986 591.526 371.166 591.306 371.356 591.086V591.076C371.606 590.786 371.856 590.486 372.096 590.186C372.156 590.116 372.206 590.056 372.256 589.996V589.986C372.456 589.746 372.646 589.506 372.846 589.256C372.946 589.136 373.036 589.016 373.136 588.896V588.886C373.726 588.146 374.296 587.406 374.866 586.646C375.016 586.446 375.166 586.236 375.326 586.026C376.046 585.056 376.746 584.066 377.426 583.076V583.066C377.686 582.696 377.936 582.316 378.196 581.946C378.446 581.566 378.696 581.186 378.946 580.806C379.196 580.406 379.456 580.016 379.706 579.616L379.736 579.556C379.986 579.176 380.236 578.776 380.476 578.386C380.666 578.066 380.856 577.756 381.046 577.446C381.166 577.236 381.296 577.026 381.416 576.806C381.463 576.738 381.506 576.668 381.546 576.596C381.826 576.106 382.106 575.616 382.386 575.126C382.716 574.556 383.036 573.976 383.356 573.396C383.476 573.156 383.606 572.916 383.736 572.676C383.786 572.596 383.826 572.516 383.866 572.436C384.016 572.156 384.166 571.866 384.306 571.576C384.456 571.296 384.606 571.006 384.756 570.716C384.896 570.436 385.046 570.146 385.186 569.856C385.296 569.636 385.396 569.416 385.506 569.196C385.513 569.178 385.523 569.161 385.536 569.146C385.586 569.036 385.636 568.936 385.676 568.836C385.688 568.821 385.698 568.804 385.706 568.786C385.816 568.566 385.916 568.336 386.026 568.116C386.166 567.826 386.296 567.526 386.436 567.236C386.526 567.036 386.626 566.826 386.716 566.616C386.846 566.326 386.986 566.036 387.106 565.736C387.246 565.436 387.376 565.136 387.506 564.826C387.543 564.751 387.576 564.674 387.606 564.596C387.676 564.456 387.726 564.316 387.786 564.176C387.946 563.806 388.106 563.426 388.256 563.056C388.436 562.636 388.606 562.206 388.766 561.786C388.926 561.396 389.076 560.996 389.226 560.596L389.286 560.456C391.616 554.319 393.383 547.983 394.566 541.526V541.516C395.233 537.83 395.71 534.111 395.996 530.376C396.006 530.166 396.026 529.966 396.036 529.766C396.216 527.236 396.296 524.696 396.296 522.146C396.296 521.016 396.276 519.896 396.246 518.776C395.548 495.352 387.195 472.802 372.466 454.576C372.146 454.176 371.826 453.776 371.496 453.376C371.166 452.976 370.826 452.586 370.496 452.196C359.533 439.358 345.708 429.276 330.134 422.761C314.56 416.247 297.673 413.483 280.835 414.693C263.997 415.902 247.679 421.051 233.196 429.725C218.713 438.398 206.47 450.353 197.456 464.626C196.966 465.406 196.476 466.196 196.006 466.986C195.526 467.786 195.066 468.586 194.606 469.396C185.546 485.499 180.8 503.669 180.826 522.146Z" fill="#F2F2F2"/>
<path d="M284.283 451.679C301.999 456.225 320.154 458.845 338.432 459.495C341.196 459.645 343.966 459.626 346.728 459.438C352.797 458.928 357.995 457.02 363.785 455.978C366.568 455.478 369.669 455.113 372.471 454.573C371.823 453.769 371.164 452.976 370.493 452.192C364.451 452.703 358.315 454.374 352.2 455.15C341.806 456.472 330.16 454.997 322.28 451.36C318.457 449.594 315.528 447.391 311.719 445.618C311.201 445.352 310.639 445.18 310.061 445.111C308.963 445.078 307.878 445.359 306.934 445.922C300.543 449.148 291.263 451.771 282.65 450.328C282.008 450.83 283.228 451.403 284.283 451.679Z" fill="white"/>
<path d="M246.169 463.034C246.09 463.02 246.011 463.008 245.932 462.995C246.263 462.79 246.575 462.555 246.863 462.293L246.169 463.034Z" fill="white"/>
<path d="M194.608 469.4C198.205 469.687 201.821 469.901 205.456 470.042C208.22 470.191 210.991 470.172 213.752 469.986C219.821 469.472 225.02 467.568 230.809 466.525C236.115 465.572 242.563 465.112 245.932 462.995C237.225 461.488 228.203 464.556 219.225 465.698C211.962 466.591 204.6 466.227 197.461 464.623C196.467 466.187 195.516 467.779 194.608 469.4Z" fill="white"/>
<path d="M238.125 617.355C238.985 617.825 239.855 618.275 240.725 618.705C241.035 618.855 241.355 619.005 241.665 619.165C241.925 619.285 242.185 619.415 242.445 619.535C242.525 619.575 242.595 619.605 242.665 619.645C242.885 619.745 243.095 619.846 243.315 619.946C243.555 620.056 243.796 620.165 244.026 620.275C244.296 620.395 244.556 620.515 244.826 620.625C245.826 621.075 246.835 621.505 247.845 621.915C251.465 623.399 255.164 624.681 258.926 625.756C259.096 625.806 259.276 625.855 259.456 625.905C261.066 626.355 262.686 626.766 264.316 627.136C267.166 627.796 270.042 628.336 272.946 628.756H272.966C273.316 628.806 273.656 628.855 274.006 628.905C274.036 628.905 274.066 628.915 274.106 628.915C274.106 628.925 274.106 628.925 274.116 628.915C274.496 628.965 274.886 629.015 275.266 629.065C275.291 629.073 275.319 629.077 275.346 629.076C275.706 629.126 276.076 629.165 276.436 629.205C276.826 629.245 277.216 629.286 277.606 629.326C277.906 629.356 278.206 629.385 278.506 629.415C278.531 629.424 278.558 629.428 278.586 629.425C278.856 629.445 279.126 629.475 279.396 629.495H279.436C279.666 629.515 279.906 629.535 280.136 629.556C282.926 629.776 285.726 629.875 288.566 629.875C291.636 629.875 294.686 629.755 297.696 629.495H297.726C298.376 629.435 299.016 629.375 299.656 629.315C299.826 629.295 299.986 629.285 300.156 629.265C300.186 629.265 300.226 629.256 300.256 629.256C300.306 629.246 300.356 629.245 300.416 629.235C300.443 629.237 300.47 629.233 300.496 629.225C300.716 629.205 300.936 629.175 301.166 629.155L301.916 629.065C302.166 629.035 302.416 628.995 302.666 628.965C302.726 628.955 302.776 628.956 302.836 628.946C303.016 628.926 303.196 628.895 303.376 628.866C303.466 628.856 303.556 628.846 303.636 628.836C303.816 628.806 303.986 628.785 304.166 628.756H304.176C309.663 627.966 315.08 626.745 320.376 625.106C320.656 625.016 320.936 624.935 321.216 624.846C319.924 618.824 317.266 613.18 313.446 608.349C309.626 603.518 304.747 599.63 299.186 596.986C300.561 595.675 301.512 593.982 301.916 592.125C302.175 590.929 302.196 589.693 301.976 588.488C301.756 587.283 301.301 586.134 300.636 585.106C299.338 583.113 297.302 581.717 294.976 581.226L280.156 578.126C277.77 577.66 275.297 578.156 273.275 579.504C271.252 580.852 269.844 582.944 269.356 585.326C269.204 586.055 269.137 586.8 269.156 587.546C254.886 597.045 244.615 606.895 238.125 617.355Z" fill="#6C63FF"/>
<path d="M281.884 572.272C298.936 572.272 312.76 558.449 312.76 541.397C312.76 524.344 298.936 510.521 281.884 510.521C264.832 510.521 251.009 524.344 251.009 541.397C251.009 558.449 264.832 572.272 281.884 572.272Z" fill="#FFB8B8"/>
<path d="M262.639 568.016C259.347 565.767 255.984 561.445 253.74 558.206C250.765 553.948 248.719 549.113 247.733 544.014C246.746 538.914 246.843 533.665 248.015 528.605C248.389 526.582 249.308 524.699 250.673 523.16C252.127 521.721 254.502 521.039 256.277 522.056C255.793 520.759 255.579 519.376 255.65 517.994C255.721 516.611 256.074 515.257 256.689 514.017C257.936 511.539 259.744 509.386 261.968 507.729C266.222 504.453 271.283 502.39 276.615 501.759C281.947 501.127 287.35 501.952 292.251 504.143C294.18 505.037 291.012 498.135 293.031 498.801C295.036 499.577 297.266 499.538 299.243 498.691C301.141 497.736 307.435 503.414 306.706 501.417C308.147 502.071 309.399 503.079 310.345 504.348C311.291 505.616 311.901 507.103 312.118 508.671C312.335 510.238 312.152 511.835 311.585 513.312C311.018 514.79 310.087 516.1 308.878 517.121C307.284 518.466 305.295 519.24 303.55 520.382C300.493 522.533 298.33 525.728 297.467 529.365C296.605 533.002 297.105 536.829 298.871 540.123C297.036 538.943 295.021 538.068 292.907 537.531C291.846 537.272 290.738 537.27 289.676 537.525C288.615 537.781 287.629 538.286 286.802 538.999C286.111 539.79 285.589 540.714 285.267 541.714C284.946 542.714 284.833 543.769 284.935 544.815C285.004 546.91 285.502 548.974 285.558 551.07C285.722 557.219 289.016 568.91 284.248 572.178C280.486 574.758 267.135 571.087 262.639 568.016Z" fill="#2F2E41"/>
<path d="M808.328 37.2997H1.01361C0.742799 37.2937 0.485104 37.1819 0.2957 36.9883C0.106296 36.7946 0.000244141 36.5345 0.000244141 36.2636C0.000244141 35.9928 0.106296 35.7327 0.2957 35.539C0.485104 35.3453 0.742799 35.2335 1.01361 35.2275H808.328C808.599 35.2335 808.857 35.3453 809.046 35.539C809.236 35.7327 809.342 35.9928 809.342 36.2636C809.342 36.5345 809.236 36.7946 809.046 36.9883C808.857 37.1819 808.599 37.2937 808.328 37.2997Z" fill="#CACACA"/>
<path d="M23.8257 22.7943C29.983 22.7943 34.9744 17.6917 34.9744 11.3972C34.9744 5.10269 29.983 0 23.8257 0C17.6684 0 12.677 5.10269 12.677 11.3972C12.677 17.6917 17.6684 22.7943 23.8257 22.7943Z" fill="#3F3D56"/>
<path d="M62.3394 22.7943C68.4966 22.7943 73.4881 17.6917 73.4881 11.3972C73.4881 5.10269 68.4966 0 62.3394 0C56.1821 0 51.1907 5.10269 51.1907 11.3972C51.1907 17.6917 56.1821 22.7943 62.3394 22.7943Z" fill="#3F3D56"/>
<path d="M100.853 22.7943C107.01 22.7943 112.002 17.6917 112.002 11.3972C112.002 5.10269 107.01 0 100.853 0C94.6958 0 89.7043 5.10269 89.7043 11.3972C89.7043 17.6917 94.6958 22.7943 100.853 22.7943Z" fill="#3F3D56"/>
<path d="M785.253 6.97108H757.888C757.346 6.95913 756.831 6.73555 756.452 6.34824C756.073 5.96092 755.861 5.44066 755.861 4.89886C755.861 4.35707 756.073 3.83682 756.452 3.44951C756.831 3.0622 757.346 2.83862 757.888 2.82666H785.253C785.794 2.83862 786.31 3.0622 786.689 3.44951C787.068 3.83682 787.28 4.35707 787.28 4.89886C787.28 5.44066 787.068 5.96092 786.689 6.34824C786.31 6.73555 785.794 6.95913 785.253 6.97108Z" fill="#3F3D56"/>
<path d="M785.253 14.7421H757.888C757.346 14.7302 756.831 14.5066 756.452 14.1193C756.073 13.732 755.861 13.2117 755.861 12.6699C755.861 12.128 756.073 11.6077 756.452 11.2204C756.831 10.8331 757.346 10.6096 757.888 10.5977H785.253C785.794 10.6096 786.31 10.8331 786.689 11.2204C787.068 11.6077 787.28 12.128 787.28 12.6699C787.28 13.2117 787.068 13.732 786.689 14.1193C786.31 14.5066 785.794 14.7302 785.253 14.7421Z" fill="#3F3D56"/>
<path d="M785.253 22.5131H757.888C757.346 22.5012 756.831 22.2776 756.452 21.8903C756.073 21.503 755.861 20.9827 755.861 20.4409C755.861 19.899 756.073 19.3787 756.452 18.9914C756.831 18.6041 757.346 18.3806 757.888 18.3687H785.253C785.794 18.3806 786.31 18.6041 786.689 18.9914C787.068 19.3787 787.28 19.899 787.28 20.4409C787.28 20.9827 787.068 21.503 786.689 21.8903C786.31 22.2776 785.794 22.5012 785.253 22.5131Z" fill="#3F3D56"/>
<path d="M303.114 386.856C302.464 386.854 301.82 386.724 301.22 386.473C300.325 386.114 299.559 385.492 299.023 384.69C298.487 383.888 298.206 382.943 298.216 381.978V377.091C298.215 376.066 297.808 375.083 297.083 374.358C296.358 373.633 295.375 373.225 294.35 373.224C293.06 373.223 291.823 372.709 290.91 371.797C289.998 370.885 289.485 369.648 289.483 368.357V301.402C289.485 300.112 289.998 298.875 290.91 297.963C291.822 297.05 293.059 296.537 294.35 296.536H516.176C517.467 296.537 518.704 297.05 519.616 297.963C520.528 298.875 521.042 300.112 521.043 301.402V368.357C521.042 369.648 520.528 370.885 519.616 371.797C518.704 372.709 517.467 373.223 516.176 373.224H320.321C319.813 373.223 319.31 373.322 318.84 373.516C318.371 373.711 317.945 373.996 317.586 374.356L306.524 385.418C306.079 385.872 305.549 386.233 304.963 386.479C304.378 386.726 303.749 386.854 303.114 386.856Z" fill="white"/>
<path d="M303.114 387.856C302.332 387.855 301.558 387.699 300.837 387.397C299.758 386.963 298.835 386.214 298.189 385.247C297.543 384.28 297.204 383.141 297.216 381.978V377.091C297.216 376.331 296.913 375.603 296.376 375.065C295.839 374.527 295.11 374.225 294.35 374.224C292.795 374.222 291.303 373.604 290.204 372.504C289.104 371.404 288.485 369.912 288.483 368.357V301.402C288.485 299.847 289.104 298.356 290.203 297.256C291.303 296.156 292.794 295.537 294.35 295.536H516.176C517.732 295.537 519.223 296.156 520.323 297.256C521.423 298.356 522.041 299.847 522.043 301.402V368.357C522.041 369.912 521.423 371.404 520.323 372.504C519.223 373.604 517.732 374.222 516.176 374.224H320.321C319.944 374.223 319.571 374.297 319.223 374.441C318.875 374.585 318.559 374.797 318.293 375.064L307.231 386.125C306.694 386.672 306.053 387.106 305.346 387.403C304.639 387.7 303.881 387.854 303.114 387.856ZM294.35 297.536C293.325 297.537 292.342 297.945 291.617 298.67C290.892 299.394 290.484 300.377 290.483 301.402V368.357C290.484 369.382 290.892 370.365 291.617 371.09C292.342 371.815 293.325 372.223 294.35 372.224C295.64 372.226 296.877 372.739 297.79 373.652C298.702 374.564 299.215 375.801 299.216 377.091V381.978C299.217 382.743 299.443 383.49 299.868 384.126C300.293 384.762 300.897 385.257 301.604 385.55C302.31 385.842 303.087 385.919 303.837 385.769C304.587 385.62 305.276 385.252 305.817 384.711L316.879 373.65C317.33 373.196 317.866 372.837 318.457 372.592C319.048 372.347 319.681 372.222 320.321 372.224H516.176C517.202 372.223 518.185 371.815 518.909 371.09C519.634 370.365 520.042 369.382 520.043 368.357V301.402C520.042 300.377 519.634 299.394 518.909 298.669C518.184 297.944 517.201 297.537 516.176 297.536L294.35 297.536Z" fill="#3F3D56"/>
<path d="M497.114 326.848H317.236C316.549 326.848 315.89 326.575 315.404 326.089C314.918 325.603 314.645 324.944 314.645 324.257C314.645 323.57 314.918 322.911 315.404 322.425C315.89 321.939 316.549 321.667 317.236 321.667H497.114C497.801 321.667 498.46 321.939 498.946 322.425C499.432 322.911 499.705 323.57 499.705 324.257C499.705 324.944 499.432 325.603 498.946 326.089C498.46 326.575 497.801 326.848 497.114 326.848Z" fill="#6C63FF"/>
<path d="M496.784 337.855H317.236C316.549 337.855 315.89 337.582 315.404 337.096C314.918 336.61 314.645 335.951 314.645 335.264C314.645 334.577 314.918 333.918 315.404 333.432C315.89 332.946 316.549 332.673 317.236 332.673H496.784C497.471 332.673 498.13 332.946 498.616 333.432C499.102 333.918 499.374 334.577 499.374 335.264C499.374 335.951 499.102 336.61 498.616 337.096C498.13 337.582 497.471 337.855 496.784 337.855Z" fill="#E6E6E6"/>
<path d="M496.605 348.861H317.236C316.549 348.861 315.89 348.588 315.404 348.102C314.918 347.617 314.645 346.958 314.645 346.271C314.645 345.583 314.918 344.924 315.404 344.439C315.89 343.953 316.549 343.68 317.236 343.68H496.605C497.292 343.68 497.951 343.953 498.437 344.439C498.923 344.924 499.196 345.583 499.196 346.271C499.196 346.958 498.923 347.617 498.437 348.102C497.951 348.588 497.292 348.861 496.605 348.861Z" fill="#E6E6E6"/>
<path d="M780.386 286.145C780.386 288.575 780.306 291.005 780.136 293.415C779.956 296.295 779.646 299.155 779.226 301.995C777.814 311.558 775.116 320.886 771.206 329.725C771.006 330.165 770.806 330.605 770.606 331.045L770.306 331.705C770.206 331.925 770.096 332.145 769.996 332.355C769.856 332.645 769.726 332.925 769.586 333.205C769.416 333.555 769.246 333.905 769.066 334.255C769.046 334.295 769.026 334.345 768.996 334.395C768.846 334.695 768.706 334.985 768.546 335.285C768.516 335.351 768.483 335.414 768.446 335.475C768.276 335.815 768.096 336.165 767.916 336.505C767.716 336.865 767.526 337.235 767.326 337.595C766.846 338.485 766.346 339.365 765.836 340.245C765.686 340.505 765.536 340.765 765.376 341.025C765.236 341.265 765.096 341.505 764.946 341.745C764.846 341.905 764.746 342.075 764.646 342.235C764.486 342.505 764.326 342.765 764.156 343.035C763.786 343.625 763.406 344.215 763.036 344.805H763.026C762.856 345.075 762.676 345.345 762.496 345.605V345.615C761.966 346.415 761.416 347.215 760.866 348.005C760.864 348.005 760.863 348.006 760.862 348.006C760.86 348.007 760.859 348.007 760.858 348.008C760.858 348.009 760.857 348.01 760.856 348.012C760.856 348.013 760.856 348.014 760.856 348.015C760.416 348.655 759.956 349.275 759.506 349.895V349.905C759.206 350.295 758.916 350.695 758.616 351.085C758.376 351.405 758.126 351.735 757.876 352.055C757.826 352.125 757.766 352.185 757.716 352.255V352.265C757.646 352.355 757.576 352.435 757.506 352.525C756.446 353.885 755.352 355.215 754.226 356.515L754.046 356.725C753.986 356.795 753.916 356.865 753.856 356.945C753.756 357.055 753.666 357.165 753.566 357.275C753.476 357.385 753.376 357.495 753.276 357.605C747.402 364.221 740.743 370.095 733.446 375.095C732.476 375.765 731.486 376.415 730.496 377.045C730.246 377.205 729.996 377.365 729.746 377.515C729.676 377.565 729.596 377.615 729.526 377.665C729.386 377.745 729.256 377.825 729.116 377.915C728.986 377.995 728.856 378.075 728.716 378.155C728.186 378.485 727.646 378.805 727.106 379.125C726.976 379.205 726.836 379.285 726.696 379.365C726.566 379.435 726.426 379.515 726.286 379.595C726.286 379.605 726.286 379.605 726.276 379.605H726.266V379.615H726.256C725.586 380.005 724.906 380.385 724.216 380.755C723.846 380.955 723.466 381.165 723.086 381.355C722.226 381.825 721.356 382.275 720.486 382.705C720.176 382.855 719.856 383.005 719.546 383.165C719.286 383.285 719.026 383.415 718.766 383.535C718.686 383.575 718.616 383.605 718.546 383.645C718.326 383.745 718.116 383.845 717.896 383.945C717.656 384.055 717.416 384.165 717.186 384.275C716.916 384.395 716.656 384.515 716.386 384.625C715.386 385.075 714.376 385.505 713.366 385.915C709.746 387.399 706.047 388.681 702.286 389.755C702.116 389.805 701.936 389.855 701.756 389.905C700.146 390.355 698.525 390.765 696.896 391.135C694.046 391.795 691.169 392.335 688.266 392.755H688.246C687.896 392.805 687.556 392.855 687.206 392.905C687.176 392.905 687.146 392.915 687.106 392.915C687.106 392.925 687.106 392.925 687.096 392.915C686.716 392.965 686.326 393.015 685.946 393.065C685.92 393.073 685.893 393.076 685.866 393.075C685.506 393.125 685.136 393.165 684.776 393.205C684.386 393.245 683.996 393.285 683.606 393.325C683.306 393.355 683.006 393.385 682.706 393.415C682.68 393.424 682.653 393.428 682.626 393.425C682.356 393.445 682.086 393.475 681.816 393.495H681.776C681.546 393.515 681.306 393.535 681.076 393.555C678.285 393.775 675.486 393.875 672.646 393.875C669.576 393.875 666.526 393.755 663.516 393.495H663.486C662.836 393.435 662.196 393.375 661.556 393.315C661.386 393.295 661.226 393.285 661.056 393.265C661.026 393.265 660.986 393.255 660.956 393.255C660.906 393.245 660.856 393.245 660.796 393.235C660.769 393.236 660.741 393.233 660.716 393.225C660.496 393.205 660.276 393.175 660.046 393.155L659.296 393.065C659.046 393.035 658.796 392.995 658.546 392.965C658.486 392.955 658.436 392.955 658.376 392.945C658.196 392.925 658.016 392.895 657.836 392.865C657.746 392.855 657.656 392.845 657.576 392.835C657.396 392.805 657.226 392.785 657.046 392.755H657.036C651.548 391.965 646.131 390.745 640.836 389.105C640.556 389.015 640.276 388.935 639.996 388.845C639.986 388.845 639.976 388.835 639.966 388.835C639.886 388.805 639.796 388.785 639.716 388.755C638.966 388.515 638.226 388.265 637.486 388.005C636.466 387.665 635.456 387.295 634.446 386.915C634.176 386.805 633.906 386.705 633.636 386.595C633.086 386.385 632.546 386.165 632.006 385.945C631.086 385.575 630.166 385.185 629.256 384.785C628.406 384.405 627.566 384.025 626.726 383.625C626.706 383.615 626.676 383.616 626.656 383.595C626.466 383.505 626.276 383.415 626.096 383.325H626.086C621.48 381.115 617.039 378.579 612.796 375.735C611.436 374.825 610.096 373.885 608.776 372.915C607.716 372.125 606.676 371.325 605.636 370.505C600.505 366.424 595.755 361.886 591.446 356.945V356.935C591.136 356.595 590.846 356.245 590.546 355.895C590.496 355.845 590.456 355.795 590.416 355.755C590.226 355.525 590.046 355.305 589.856 355.085V355.075C589.606 354.785 589.356 354.485 589.116 354.185C589.056 354.116 589.006 354.056 588.956 353.995V353.985C588.756 353.745 588.566 353.505 588.366 353.255C588.266 353.135 588.176 353.015 588.076 352.895V352.885C587.486 352.145 586.916 351.405 586.346 350.645C586.196 350.445 586.046 350.235 585.886 350.025C585.166 349.055 584.466 348.065 583.786 347.075V347.065C583.526 346.695 583.276 346.315 583.016 345.945C582.766 345.565 582.516 345.185 582.266 344.806C582.016 344.406 581.756 344.016 581.506 343.616L581.476 343.556C581.226 343.176 580.976 342.775 580.736 342.385C580.546 342.065 580.356 341.755 580.166 341.445C580.046 341.235 579.916 341.025 579.796 340.806C579.749 340.738 579.705 340.668 579.666 340.595C579.386 340.105 579.106 339.615 578.826 339.125C578.496 338.556 578.176 337.976 577.856 337.396C577.736 337.156 577.606 336.916 577.476 336.676C577.426 336.596 577.386 336.516 577.346 336.436C577.196 336.156 577.046 335.866 576.906 335.576C576.756 335.296 576.606 335.006 576.456 334.716C576.316 334.436 576.166 334.145 576.026 333.855C575.916 333.635 575.816 333.415 575.706 333.195C575.698 333.178 575.688 333.161 575.676 333.146C575.626 333.036 575.576 332.936 575.536 332.836C575.523 332.82 575.513 332.803 575.506 332.785C575.396 332.565 575.296 332.336 575.186 332.116C575.046 331.826 574.916 331.525 574.776 331.236C574.686 331.036 574.586 330.826 574.496 330.616C574.366 330.326 574.226 330.036 574.106 329.736C573.966 329.436 573.836 329.135 573.706 328.826C573.668 328.751 573.635 328.674 573.606 328.595C573.536 328.455 573.486 328.316 573.426 328.176C573.266 327.806 573.106 327.426 572.956 327.056C572.776 326.635 572.606 326.205 572.446 325.785C572.286 325.395 572.136 324.995 571.986 324.595L571.926 324.456C569.596 318.319 567.828 311.982 566.646 305.526V305.515C565.978 301.829 565.501 298.111 565.216 294.375C565.206 294.165 565.186 293.965 565.176 293.765C564.996 291.235 564.916 288.696 564.916 286.146C564.916 285.016 564.936 283.896 564.966 282.776C565.664 259.352 574.016 236.802 588.746 218.575C589.066 218.175 589.386 217.775 589.716 217.375C590.046 216.975 590.386 216.585 590.716 216.195C601.678 203.358 615.503 193.275 631.077 186.761C646.651 180.247 663.538 177.483 680.376 178.692C697.214 179.902 713.532 185.051 728.015 193.724C742.498 202.398 754.741 214.353 763.756 228.625C764.246 229.405 764.736 230.196 765.206 230.986C765.686 231.786 766.146 232.586 766.606 233.396C775.665 249.499 780.412 267.669 780.386 286.145Z" fill="#F2F2F2"/>
<path d="M676.928 215.679C659.212 220.225 641.057 222.845 622.779 223.495C620.015 223.645 617.245 223.626 614.483 223.438C608.414 222.928 603.216 221.02 597.426 219.978C594.643 219.478 591.542 219.113 588.74 218.573C589.388 217.769 590.047 216.976 590.718 216.192C596.76 216.703 602.896 218.374 609.011 219.15C619.405 220.472 631.051 218.997 638.931 215.359C642.754 213.594 645.683 211.391 649.492 209.618C650.01 209.352 650.571 209.18 651.15 209.111C652.248 209.078 653.333 209.359 654.277 209.922C660.668 213.148 669.948 215.771 678.561 214.328C679.203 214.83 677.983 215.402 676.928 215.679Z" fill="white"/>
<path d="M715.042 227.034C715.121 227.02 715.2 227.008 715.279 226.995C714.948 226.79 714.636 226.555 714.348 226.293L715.042 227.034Z" fill="white"/>
<path d="M766.603 233.4C763.006 233.687 759.39 233.901 755.755 234.042C752.991 234.191 750.221 234.172 747.459 233.986C741.39 233.472 736.191 231.568 730.402 230.525C725.096 229.572 718.648 229.112 715.279 226.995C723.986 225.488 733.008 228.556 741.986 229.698C749.249 230.591 756.611 230.227 763.75 228.623C764.744 230.187 765.695 231.779 766.603 233.4Z" fill="white"/>
<path d="M660.5 333.287C678.371 333.287 692.859 318.477 692.859 300.208C692.859 281.938 678.371 267.128 660.5 267.128C642.629 267.128 628.142 281.938 628.142 300.208C628.142 318.477 642.629 333.287 660.5 333.287Z" fill="#FFB6B6"/>
<path d="M723.085 381.355C722.225 381.825 721.355 382.275 720.485 382.705C720.175 382.855 719.855 383.005 719.545 383.165C719.285 383.285 719.025 383.415 718.765 383.535C718.685 383.575 718.615 383.605 718.545 383.645C718.325 383.745 718.115 383.846 717.895 383.946C717.655 384.056 717.415 384.165 717.185 384.275C716.915 384.395 716.655 384.516 716.385 384.626C715.385 385.076 714.375 385.505 713.365 385.915C709.746 387.399 706.047 388.681 702.285 389.756C702.115 389.806 701.935 389.855 701.755 389.905C700.145 390.355 698.525 390.766 696.895 391.136C694.045 391.796 691.169 392.336 688.265 392.756H688.245C687.895 392.806 687.555 392.855 687.205 392.905C687.175 392.905 687.145 392.915 687.105 392.915C687.105 392.925 687.105 392.925 687.095 392.915C686.715 392.965 686.325 393.016 685.945 393.066C685.919 393.073 685.892 393.077 685.865 393.076C685.505 393.126 685.135 393.165 684.775 393.205C684.385 393.245 683.995 393.286 683.605 393.326C683.305 393.356 683.005 393.385 682.705 393.415C682.68 393.424 682.652 393.428 682.625 393.426C682.355 393.446 682.085 393.476 681.815 393.496H681.775C681.545 393.516 681.305 393.536 681.075 393.556C678.285 393.776 675.485 393.876 672.645 393.876C669.575 393.876 666.525 393.756 663.515 393.496H663.485C662.835 393.436 662.195 393.376 661.555 393.316C661.385 393.296 661.225 393.285 661.055 393.265C661.025 393.265 660.985 393.256 660.955 393.256C660.905 393.246 660.855 393.245 660.795 393.236C660.768 393.237 660.741 393.233 660.715 393.225C660.495 393.205 660.275 393.175 660.045 393.155L659.295 393.066C659.045 393.036 658.795 392.995 658.545 392.965C658.485 392.955 658.435 392.956 658.375 392.946C658.195 392.926 658.015 392.896 657.835 392.866C657.745 392.856 657.655 392.846 657.575 392.836C657.395 392.806 657.225 392.786 657.045 392.756H657.035C651.548 391.966 646.131 390.745 640.835 389.106C640.555 389.016 640.275 388.935 639.995 388.846C641.287 382.824 643.945 377.18 647.765 372.349C651.584 367.518 656.464 363.63 662.025 360.986C660.65 359.675 659.699 357.982 659.295 356.125C659.036 354.929 659.015 353.693 659.235 352.488C659.454 351.283 659.91 350.134 660.575 349.106C661.873 347.113 663.909 345.717 666.235 345.226L681.055 342.126C683.441 341.66 685.914 342.156 687.936 343.504C689.959 344.852 691.367 346.944 691.855 349.326C692.007 350.055 692.074 350.8 692.055 351.546C706.325 361.046 716.595 370.895 723.085 381.355Z" fill="#6C63FF"/>
<path d="M747.088 285.861C741.588 279.447 738.973 270.937 734.576 263.653C730.179 256.369 722.527 249.851 714.443 251.546C708.871 252.714 704.565 257.631 702.384 263.113C700.205 268.595 699.796 274.641 699.414 280.563C699.549 268.392 691.53 256.593 680.484 252.709C669.439 248.826 656.22 253.158 649.279 262.936C646.25 260.129 642.297 258.53 638.168 258.443C634.039 258.357 630.022 259.788 626.878 262.466C620.669 268.014 619.295 278.576 623.861 285.653C628.427 292.731 638.315 295.367 645.571 291.442L648.136 293.802C646.692 298.852 649.492 304.817 654.199 306.718C658.016 308.26 663.405 308.003 664.833 312.009C665.831 314.808 663.965 317.795 661.981 319.946C659.997 322.096 657.641 324.317 657.402 327.293C657.042 331.784 661.683 334.929 665.901 335.877C676.072 338.161 687.358 333.451 693.221 324.475C693.334 324.301 693.457 324.128 693.589 323.955C696.878 319.748 699.275 314.916 700.634 309.752C701.992 304.588 702.284 299.201 701.49 293.921C701.16 291.846 701.492 290.303 702.923 289.812C709.105 287.688 726.427 292.145 731.669 296.174C736.912 300.202 741.11 305.533 746.159 309.822C751.209 314.11 757.644 317.418 764.056 316.25C769.191 315.315 773.559 311.587 776.497 307.09C779.435 302.593 781.126 297.352 782.641 292.143C771.286 298.702 755.746 295.957 747.088 285.861Z" fill="#2F2E41"/>
<path d="M82.8255 219.145C82.8255 221.575 82.9055 224.005 83.0755 226.415C83.2555 229.295 83.5655 232.155 83.9855 234.995C85.397 244.558 88.0948 253.886 92.0055 262.725C92.2055 263.165 92.4055 263.605 92.6055 264.045L92.9055 264.705C93.0055 264.925 93.1155 265.145 93.2155 265.355C93.3555 265.645 93.4855 265.925 93.6255 266.205C93.7955 266.555 93.9655 266.905 94.1455 267.255C94.1655 267.295 94.1855 267.345 94.2155 267.395C94.3655 267.695 94.5055 267.985 94.6655 268.285C94.6949 268.351 94.7283 268.414 94.7655 268.475C94.9355 268.815 95.1155 269.165 95.2955 269.505C95.4955 269.865 95.6855 270.235 95.8855 270.595C96.3655 271.485 96.8655 272.365 97.3755 273.245C97.5255 273.505 97.6755 273.765 97.8355 274.025C97.9755 274.265 98.1155 274.505 98.2655 274.745C98.3655 274.905 98.4655 275.075 98.5655 275.235C98.7255 275.505 98.8855 275.765 99.0555 276.035C99.4255 276.625 99.8055 277.215 100.176 277.805H100.186C100.356 278.075 100.536 278.345 100.716 278.605V278.615C101.246 279.415 101.796 280.215 102.346 281.005C102.347 281.005 102.348 281.006 102.349 281.006C102.351 281.007 102.352 281.007 102.353 281.008C102.354 281.009 102.354 281.01 102.355 281.012C102.355 281.013 102.356 281.014 102.356 281.015C102.796 281.655 103.256 282.275 103.706 282.895V282.905C104.006 283.295 104.296 283.695 104.596 284.085C104.836 284.405 105.086 284.735 105.336 285.055C105.386 285.125 105.446 285.185 105.496 285.255V285.265C105.566 285.355 105.636 285.435 105.706 285.525C106.766 286.885 107.859 288.215 108.986 289.515L109.166 289.725C109.226 289.795 109.296 289.865 109.356 289.945C109.456 290.055 109.546 290.165 109.646 290.275C109.736 290.385 109.836 290.495 109.936 290.605C115.809 297.221 122.468 303.095 129.766 308.095C130.736 308.765 131.726 309.415 132.716 310.045C132.966 310.205 133.216 310.365 133.466 310.515C133.536 310.565 133.616 310.615 133.686 310.665C133.826 310.745 133.956 310.825 134.096 310.915C134.226 310.995 134.356 311.075 134.496 311.155C135.026 311.485 135.566 311.805 136.106 312.125C136.236 312.205 136.376 312.285 136.516 312.365C136.646 312.435 136.786 312.515 136.926 312.595C136.926 312.605 136.926 312.605 136.936 312.605H136.946V312.615H136.956C137.626 313.005 138.306 313.385 138.996 313.755C139.366 313.955 139.746 314.165 140.126 314.355C140.986 314.825 141.856 315.275 142.726 315.705C143.036 315.855 143.356 316.005 143.666 316.165C143.926 316.285 144.186 316.415 144.446 316.535C144.526 316.575 144.596 316.605 144.666 316.645C144.886 316.745 145.096 316.845 145.316 316.945C145.556 317.055 145.796 317.165 146.026 317.275C146.296 317.395 146.556 317.515 146.826 317.625C147.826 318.075 148.836 318.505 149.846 318.915C153.465 320.399 157.164 321.681 160.926 322.755C161.096 322.805 161.276 322.855 161.456 322.905C163.066 323.355 164.686 323.765 166.316 324.135C169.166 324.795 172.042 325.335 174.946 325.755H174.966C175.316 325.805 175.656 325.855 176.006 325.905C176.036 325.905 176.066 325.915 176.106 325.915C176.106 325.925 176.106 325.925 176.116 325.915C176.496 325.965 176.886 326.015 177.266 326.065C177.292 326.073 177.319 326.076 177.346 326.075C177.706 326.125 178.076 326.165 178.436 326.205C178.826 326.245 179.216 326.285 179.606 326.325C179.906 326.355 180.206 326.385 180.506 326.415C180.531 326.424 180.559 326.428 180.586 326.425C180.856 326.445 181.126 326.475 181.396 326.495H181.436C181.666 326.515 181.906 326.535 182.136 326.555C184.926 326.775 187.726 326.875 190.566 326.875C193.636 326.875 196.686 326.755 199.696 326.495H199.726C200.376 326.435 201.016 326.375 201.656 326.315C201.826 326.295 201.986 326.285 202.156 326.265C202.186 326.265 202.226 326.255 202.256 326.255C202.306 326.245 202.356 326.245 202.416 326.235C202.443 326.236 202.47 326.233 202.496 326.225C202.716 326.205 202.936 326.175 203.166 326.155L203.916 326.065C204.166 326.035 204.416 325.995 204.666 325.965C204.726 325.955 204.776 325.955 204.836 325.945C205.016 325.925 205.196 325.895 205.376 325.865C205.466 325.855 205.556 325.845 205.636 325.835C205.816 325.805 205.986 325.785 206.166 325.755H206.176C211.663 324.965 217.08 323.745 222.376 322.105C222.656 322.015 222.936 321.935 223.216 321.845C223.226 321.845 223.236 321.835 223.246 321.835C223.326 321.805 223.416 321.785 223.496 321.755C224.246 321.515 224.986 321.265 225.726 321.005C226.746 320.665 227.756 320.295 228.766 319.915C229.036 319.805 229.306 319.705 229.576 319.595C230.126 319.385 230.666 319.165 231.206 318.945C232.126 318.575 233.046 318.185 233.956 317.785C234.806 317.405 235.646 317.025 236.486 316.625C236.506 316.616 236.536 316.616 236.556 316.595C236.746 316.505 236.936 316.415 237.116 316.325H237.126C241.731 314.115 246.172 311.579 250.416 308.735C251.776 307.825 253.116 306.885 254.436 305.915C255.496 305.125 256.536 304.325 257.576 303.505C262.706 299.424 267.456 294.886 271.766 289.945V289.935C272.076 289.595 272.366 289.245 272.666 288.895C272.716 288.845 272.756 288.795 272.796 288.755C272.986 288.525 273.166 288.305 273.356 288.085V288.075C273.606 287.785 273.856 287.485 274.096 287.185C274.156 287.115 274.206 287.055 274.256 286.995V286.985C274.456 286.745 274.646 286.505 274.846 286.255C274.946 286.135 275.036 286.015 275.136 285.895V285.885C275.726 285.145 276.296 284.405 276.866 283.645C277.016 283.445 277.166 283.235 277.326 283.025C278.046 282.055 278.746 281.065 279.426 280.075V280.065C279.686 279.695 279.936 279.315 280.196 278.945C280.446 278.565 280.696 278.185 280.946 277.805C281.196 277.406 281.456 277.015 281.706 276.615L281.736 276.555C281.986 276.175 282.236 275.775 282.476 275.385C282.666 275.065 282.856 274.755 283.046 274.445C283.166 274.235 283.296 274.025 283.416 273.805C283.462 273.738 283.506 273.668 283.546 273.595C283.826 273.105 284.106 272.615 284.386 272.125C284.716 271.556 285.036 270.975 285.356 270.395C285.476 270.155 285.606 269.915 285.736 269.675C285.786 269.595 285.826 269.516 285.866 269.436C286.016 269.156 286.166 268.866 286.306 268.575C286.456 268.295 286.606 268.005 286.756 267.715C286.896 267.436 287.046 267.145 287.186 266.855C287.296 266.635 287.396 266.415 287.506 266.195C287.513 266.178 287.523 266.161 287.536 266.145C287.586 266.035 287.636 265.936 287.676 265.835C287.688 265.82 287.698 265.803 287.706 265.785C287.816 265.565 287.916 265.335 288.026 265.115C288.166 264.826 288.296 264.525 288.436 264.235C288.526 264.035 288.626 263.826 288.716 263.615C288.846 263.326 288.986 263.035 289.106 262.735C289.246 262.435 289.376 262.135 289.506 261.825C289.543 261.751 289.576 261.674 289.606 261.595C289.676 261.455 289.726 261.315 289.786 261.175C289.946 260.805 290.106 260.425 290.256 260.055C290.436 259.635 290.606 259.205 290.766 258.785C290.926 258.395 291.076 257.995 291.226 257.595L291.286 257.455C293.616 251.319 295.383 244.982 296.566 238.525V238.515C297.233 234.829 297.71 231.111 297.996 227.375C298.006 227.165 298.026 226.965 298.036 226.765C298.216 224.235 298.296 221.695 298.296 219.145C298.296 218.015 298.276 216.895 298.246 215.775C297.548 192.352 289.195 169.802 274.466 151.575C274.146 151.175 273.826 150.775 273.496 150.375C273.166 149.975 272.826 149.585 272.496 149.195C261.533 136.358 247.708 126.275 232.134 119.761C216.56 113.247 199.673 110.483 182.835 111.692C165.997 112.902 149.679 118.051 135.196 126.724C120.713 135.398 108.47 147.353 99.4556 161.625C98.9656 162.405 98.4756 163.195 98.0056 163.986C97.5256 164.786 97.0656 165.586 96.6056 166.396C87.5462 182.499 82.7996 200.669 82.8255 219.145Z" fill="#F2F2F2"/>
<path d="M186.283 148.679C203.999 153.225 222.154 155.845 240.432 156.495C243.196 156.645 245.966 156.626 248.728 156.438C254.797 155.928 259.995 154.02 265.785 152.978C268.568 152.478 271.669 152.113 274.471 151.573C273.823 150.769 273.164 149.976 272.493 149.192C266.451 149.703 260.315 151.374 254.2 152.15C243.806 153.472 232.16 151.997 224.28 148.359C220.457 146.594 217.528 144.391 213.719 142.618C213.201 142.352 212.639 142.18 212.061 142.111C210.963 142.078 209.878 142.359 208.934 142.922C202.543 146.148 193.263 148.771 184.65 147.328C184.008 147.83 185.228 148.402 186.283 148.679Z" fill="white"/>
<path d="M148.169 160.034C148.09 160.02 148.011 160.008 147.932 159.995C148.263 159.79 148.575 159.555 148.863 159.293L148.169 160.034Z" fill="white"/>
<path d="M96.6077 166.4C100.205 166.687 103.821 166.901 107.456 167.042C110.22 167.191 112.991 167.172 115.752 166.986C121.821 166.472 127.02 164.568 132.809 163.525C138.115 162.572 144.563 162.112 147.932 159.995C139.225 158.488 130.203 161.556 121.225 162.698C113.962 163.591 106.6 163.227 99.4608 161.623C98.4668 163.187 97.5157 164.779 96.6077 166.4Z" fill="white"/>
<path d="M140.125 314.356C140.985 314.826 141.855 315.276 142.725 315.706C143.035 315.856 143.355 316.006 143.665 316.166C143.925 316.285 144.185 316.415 144.445 316.535C144.525 316.575 144.595 316.606 144.665 316.646C144.885 316.746 145.095 316.846 145.315 316.945C145.555 317.056 145.796 317.166 146.026 317.276C146.296 317.396 146.556 317.515 146.826 317.625C147.826 318.075 148.835 318.506 149.845 318.916C153.465 320.399 157.164 321.681 160.926 322.755C161.096 322.805 161.276 322.856 161.456 322.906C163.066 323.356 164.686 323.766 166.316 324.136C169.166 324.796 172.042 325.336 174.946 325.755H174.966C175.316 325.805 175.656 325.856 176.006 325.906C176.036 325.906 176.066 325.916 176.106 325.916C176.106 325.925 176.106 325.925 176.116 325.916C176.496 325.965 176.886 326.015 177.266 326.065C177.291 326.073 177.319 326.077 177.346 326.076C177.706 326.126 178.076 326.166 178.436 326.206C178.826 326.246 179.216 326.286 179.606 326.326C179.906 326.356 180.206 326.386 180.506 326.416C180.531 326.424 180.558 326.428 180.586 326.426C180.856 326.446 181.126 326.476 181.396 326.496H181.436C181.666 326.516 181.906 326.536 182.136 326.556C184.926 326.776 187.726 326.875 190.566 326.875C193.636 326.875 196.686 326.756 199.696 326.496H199.726C200.376 326.436 201.016 326.375 201.656 326.315C201.826 326.295 201.986 326.286 202.156 326.266C202.186 326.266 202.226 326.255 202.256 326.255C202.306 326.245 202.356 326.246 202.416 326.236C202.443 326.237 202.47 326.233 202.496 326.225C202.716 326.205 202.936 326.176 203.166 326.156L203.916 326.065C204.166 326.035 204.416 325.996 204.666 325.966C204.726 325.956 204.776 325.955 204.836 325.945C205.016 325.925 205.196 325.895 205.376 325.866C205.466 325.856 205.556 325.846 205.636 325.836C205.816 325.806 205.986 325.786 206.166 325.756H206.176C211.663 324.966 217.08 323.745 222.376 322.106C222.656 322.016 222.936 321.936 223.216 321.846C221.924 315.824 219.266 310.18 215.446 305.349C211.626 300.518 206.747 296.63 201.186 293.986C202.561 292.675 203.512 290.982 203.916 289.125C204.175 287.929 204.196 286.693 203.976 285.488C203.756 284.283 203.301 283.134 202.636 282.106C201.338 280.113 199.302 278.717 196.976 278.226L182.156 275.126C179.77 274.66 177.297 275.156 175.275 276.504C173.252 277.852 171.844 279.944 171.356 282.326C171.204 283.056 171.137 283.8 171.156 284.546C156.886 294.046 146.615 303.895 140.125 314.356Z" fill="#6C63FF"/>
<path d="M198.754 265.122C218.677 265.122 234.827 248.971 234.827 229.049C234.827 209.126 218.677 192.976 198.754 192.976C178.831 192.976 162.681 209.126 162.681 229.049C162.681 248.971 178.831 265.122 198.754 265.122Z" fill="#9E616A"/>
<path d="M193.628 263.194C184.597 265.633 174.641 262.39 167.593 256.239C160.545 250.088 156.137 241.372 153.596 232.369C151.736 225.776 150.854 218.457 153.79 212.266C156.725 206.076 164.627 201.9 170.723 205.027C166.962 200.646 168.841 193.399 173.233 189.651C177.625 185.903 183.656 184.829 189.4 184.241C197.735 183.389 206.346 183.293 214.278 185.994C222.211 188.694 229.418 194.599 231.9 202.602C234.436 203.782 237.291 204.089 240.02 203.473C242.748 202.857 245.195 201.353 246.977 199.198C247.437 201.673 247.067 204.231 245.927 206.476C244.786 208.721 242.938 210.527 240.667 211.615L252.821 207.675C254.911 212.099 251.249 217.575 246.565 218.992C241.882 220.408 236.826 218.86 232.381 216.813C227.937 214.766 223.63 212.178 218.802 211.38C213.974 210.582 208.304 212.133 206.071 216.487C204.901 218.767 204.84 221.438 204.161 223.909C203.482 226.38 201.762 228.943 199.207 229.145C197.593 229.273 196.012 228.413 194.403 228.589C193.415 228.783 192.505 229.262 191.785 229.965C191.065 230.669 190.566 231.567 190.348 232.55C189.948 234.523 189.943 236.555 190.334 238.53L193.421 262.128L193.628 263.194Z" fill="#2F2E41"/>
</g>
<defs>
<clipPath id="clip0_77_722">
<rect width="809.342" height="629.876" fill="white"/>
</clipPath>
</defs>
</svg>
